<?xml version="1.0" encoding="utf-8"?>
<!-- Generator: Adobe Illustrator 24.0.0, SVG Export Plug-In . SVG Version: 6.00 Build 0)  -->
<svg version="1.1" xmlns="http://www.w3.org/2000/svg" xmlns:xlink="http://www.w3.org/1999/xlink" x="0px" y="0px"
     viewBox="0 0 256 256" enable-background="new 0 0 256 256" xml:space="preserve">
<g id="Layer_2">
</g>
    <g id="Layer_1">
	<g>
		<path fill="#75C2ED" d="M128.01,7.33c-22.396,0-44.933,6.158-64.9,18.94l19.9,3.23l-5.75,17.79c14.7-9.26,32.1-14.62,50.75-14.62
			c52.65,0,95.33,42.68,95.33,95.33c0,52.65-42.68,95.33-95.33,95.33c-51.837,0-94.192-41.434-95.31-93.3
			c-0.351-23.473,7.259-44.422,20.56-61.2l7.25,7.25l2.08-34.75l-34.75,2.09l7.41,7.41c-19.547,23.45-28.669,52.709-27.88,79.2
			c1.031,65.425,54.446,118.64,120.64,118.64c66.64,0,120.67-54.03,120.67-120.67S194.65,7.33,128.01,7.33z"/>
        <path fill="#EFC01F" d="M160.01,93.75v17.43H94.76c-2.07,0-3.75,1.68-3.75,3.75V144H78.02c-1.26,0-2.43,0.63-3.12,1.67
			l-6.77,10.15c-1.23,1.85-4.12,0.97-4.12-1.25V93.75c0-2.07,1.68-3.75,3.75-3.75h88.5C158.33,90,160.01,91.68,160.01,93.75z"/>
        <path fill="#E8A521" d="M160.01,104.18v7H94.76c-2.07,0-3.75,1.68-3.75,3.75V144h-7v-29.07c0-5.93,4.82-10.75,10.75-10.75H160.01z
			"/>
        <path fill="#FC5D3D" d="M187.01,114.93v60.82c0,2.22-2.89,3.1-4.12,1.24l-6.77-10.14c-0.69-1.05-1.86-1.67-3.12-1.67H94.76
			c-2.07,0-3.75-1.68-3.75-3.75v-46.5c0-2.07,1.68-3.75,3.75-3.75h88.5C185.33,111.18,187.01,112.86,187.01,114.93z"/>
        <path fill="#F0C020" d="M29.1,230.383c-3.683-1.217-7.487-2.281-9.623-11.481c-1.967,8.473-5.118,9.992-9.623,11.481
			c7.347,2.428,8.455,6.447,9.623,11.48C21.49,233.187,24.82,231.797,29.1,230.383z"/>
        <path d="M17.068,242.422c-1.067-4.599-1.771-7.637-7.989-9.691c-2.259-0.746-2.254-3.952,0-4.697
			c3.743-1.237,6.216-2.054,7.989-9.692c0.589-2.538,4.228-2.545,4.818,0c1.813,7.811,4.522,8.549,7.989,9.691
			c2.259,0.746,2.254,3.952,0,4.697c-3.609,1.192-6.218,2.054-7.989,9.691C21.295,244.972,17.66,244.973,17.068,242.422z
			 M15.654,230.439c1.78,1.222,2.996,2.618,3.872,4.094c1.061-1.875,2.29-3.166,3.659-4.128c-1.312-0.939-2.583-2.269-3.699-4.279
			C18.383,228.111,17.094,229.451,15.654,230.439z"/>
        <path fill="#F0C020" d="M246.165,25.611c-3.683-1.217-7.487-2.281-9.623-11.481c-1.967,8.473-5.118,9.992-9.623,11.481
			c7.347,2.428,8.455,6.447,9.623,11.48C238.556,28.415,241.885,27.026,246.165,25.611z"/>
        <path d="M234.133,37.651c-1.067-4.599-1.771-7.637-7.989-9.691c-2.259-0.746-2.254-3.952,0-4.697
			c3.743-1.237,6.216-2.054,7.989-9.692c0.589-2.538,4.228-2.545,4.818,0c1.813,7.811,4.522,8.549,7.989,9.691
			c2.259,0.746,2.254,3.952,0,4.697c-3.609,1.192-6.218,2.054-7.989,9.691C238.36,40.201,234.726,40.202,234.133,37.651z
			 M232.72,25.668c1.78,1.222,2.996,2.618,3.872,4.094c1.061-1.875,2.29-3.166,3.659-4.128c-1.312-0.939-2.583-2.269-3.699-4.279
			C235.448,23.34,234.16,24.68,232.72,25.668z"/>
        <g>
			<path fill="#C5E5FE" d="M128.01,242.5c-63.136,0-114.5-51.364-114.5-114.5c0-26.4,9.201-52.164,25.908-72.543
				c0.876-1.068,2.45-1.224,3.519-0.349c1.068,0.875,1.224,2.451,0.349,3.519C27.308,78.115,18.51,102.752,18.51,128
				c0,60.378,49.122,109.5,109.5,109.5s109.5-49.122,109.5-109.5S188.388,18.5,128.01,18.5c-8.229,0-16.431,0.916-24.378,2.723
				c-1.346,0.302-2.687-0.537-2.992-1.884c-0.306-1.346,0.538-2.686,1.884-2.992c8.311-1.889,16.886-2.847,25.487-2.847
				c63.136,0,114.5,51.364,114.5,114.5S191.146,242.5,128.01,242.5z M87.214,23.632c-0.474-1.297,0.193-2.732,1.49-3.206
				c1.311-0.479,2.645-0.938,3.964-1.366c1.313-0.426,2.723,0.294,3.149,1.607c0.426,1.313-0.293,2.723-1.607,3.149
				c-1.261,0.409-2.536,0.849-3.79,1.307C89.127,25.594,87.689,24.933,87.214,23.632z"/>
		</g>
        <path d="M64.46,28.38c18.95-12.14,40.93-18.55,63.55-18.55c65.309,0,118.17,52.854,118.17,118.17
			c0,65.309-52.854,118.17-118.17,118.17c-10.02,0-19.96-1.25-29.56-3.73c-1.33-0.34-2.71,0.49-3.05,1.8
			c-0.339,1.382,0.483,2.706,1.8,3.05c10.01,2.57,20.37,3.88,30.81,3.88c68.024,0,123.17-55.127,123.17-123.17
			c0-68.06-55.183-123.17-123.17-123.17c-23.58,0-46.49,6.69-66.25,19.33c-1.16,0.75-1.5,2.3-0.76,3.46
			C61.72,28.74,63.33,29.1,64.46,28.38z"/>
        <path d="M87.44,244.33c1.175,0.45,2.702-0.164,3.18-1.53c0.449-1.308-0.219-2.728-1.54-3.19c-1.28-0.44-2.74,0.27-3.18,1.54
			c-0.46,1.3,0.23,2.73,1.53,3.18C87.44,244.33,87.44,244.33,87.44,244.33z"/>
        <path d="M77.95,240.58c1.332,0.563,2.77-0.057,3.31-1.27c0.56-1.26-0.01-2.74-1.27-3.3C38.971,217.734,9.82,176.513,9.82,126.86
			c0-26.45,9.96-53.58,27.35-74.43c0.82-0.98,0.75-2.46-0.15-3.37l-3.48-3.48l26.39-1.59l-1.58,26.39l-3.32-3.32
			c-1.111-1.089-2.831-0.924-3.73,0.22c-13.82,17.41-21.12,38.58-21.11,61.2c0,53.103,43.511,97.35,97.82,97.35
			c54.181,0,97.83-43.927,97.83-97.83c0-54.119-43.862-97.83-97.83-97.83c-18.49,0-36.5,5.19-52.08,15
			c-1.146,0.723-1.538,2.253-0.79,3.45c0.72,1.13,2.32,1.5,3.45,0.79c0.01-0.01,0.01-0.01,0.01-0.01
			c14.78-9.31,31.87-14.23,49.41-14.23c51.3,0,92.83,41.529,92.83,92.83c0,51.298-41.52,92.83-92.83,92.83
			c-51.187,0-92.82-42.439-92.82-92.35c0-20.48,6.34-39.8,18.32-55.87l5.23,5.24c1.506,1.506,4.138,0.541,4.27-1.62l2.08-34.75
			c0.083-1.469-1.127-2.736-2.65-2.65l-34.75,2.1c-2.107,0.108-3.163,2.695-1.62,4.26L31.88,51
			C14.364,72.841,4.82,100.217,4.82,126.86C4.82,178.792,35.148,221.514,77.95,240.58z"/>
        <path d="M175.01,128.5c1.381,0,2.5-1.119,2.5-2.5s-1.119-2.5-2.5-2.5h-17.25c-1.381,0-2.5,1.119-2.5,2.5s1.119,2.5,2.5,2.5H175.01
			z"/>
        <path d="M147.76,123.5h-44c-1.381,0-2.5,1.119-2.5,2.5s1.119,2.5,2.5,2.5h44c1.381,0,2.5-1.119,2.5-2.5
			S149.141,123.5,147.76,123.5z"/>
        <path d="M102.51,138.177c0,1.381,1.119,2.5,2.5,2.5h70c1.381,0,2.5-1.119,2.5-2.5s-1.119-2.5-2.5-2.5h-70
			C103.629,135.677,102.51,136.796,102.51,138.177z"/>
        <path d="M175.01,147.854h-44c-1.381,0-2.5,1.119-2.5,2.5s1.119,2.5,2.5,2.5h44c1.381,0,2.5-1.119,2.5-2.5
			S176.391,147.854,175.01,147.854z"/>
        <path d="M123.51,150.354c0-1.381-1.119-2.5-2.5-2.5h-17.25c-1.381,0-2.5,1.119-2.5,2.5s1.119,2.5,2.5,2.5h17.25
			C122.391,152.854,123.51,151.735,123.51,150.354z"/>
        <path d="M67.76,92.5h58.66c1.37,0,2.49-1.12,2.49-2.5s-1.12-2.5-2.49-2.5H67.76c-3.44,0-6.25,2.81-6.25,6.25v60.82
			c-0.036,4.649,6.133,6.551,8.7,2.64l6.77-10.15c0.23-0.35,0.62-0.56,1.04-0.56h10.49v14.93c0,3.44,2.81,6.25,6.25,6.25h10.7
			c1.38,0,2.5-1.12,2.5-2.5c0-1.38-1.12-2.5-2.5-2.5h-10.7c-0.69,0-1.25-0.56-1.25-1.25v-46.5c0-0.69,0.56-1.25,1.25-1.25h88.5
			c0.69,0,1.25,0.56,1.25,1.25v59.98l-6.31-9.45c-1.15-1.74-3.09-2.78-5.2-2.78h-47.54c-1.38,0-2.5,1.12-2.5,2.5
			c0,1.38,1.12,2.5,2.5,2.5H173c0.43,0,0.8,0.2,1.03,0.54l6.78,10.16c2.519,3.916,8.735,2.042,8.7-2.63v-60.82
			c0-3.44-2.81-6.25-6.25-6.25h-20.75V93.75c0-3.44-2.81-6.25-6.25-6.25h-9.85c-1.37,0-2.49,1.12-2.49,2.5s1.12,2.5,2.49,2.5h9.85
			c0.69,0,1.25,0.56,1.25,1.25v14.93H94.76c-3.44,0-6.25,2.81-6.25,6.25v26.57H78.02c-2.1,0-4.04,1.04-5.2,2.79l-6.31,9.45V93.75
			C66.51,93.06,67.07,92.5,67.76,92.5z"/>
        <path d="M138.91,90c0-1.38-1.12-2.5-2.49-2.5c-1.38,0-2.51,1.12-2.51,2.5s1.13,2.5,2.51,2.5C137.79,92.5,138.91,91.38,138.91,90z"
        />
        <circle cx="115.46" cy="165.18" r="2.5"/>
	</g>
</g>
</svg>
